<svg width="16" height="16" viewBox="0 0 16 16" fill="none" xmlns="http://www.w3.org/2000/svg">
<path d="M11.0769 6.60673C11.0769 5.51615 10.6554 4.58327 9.8125 3.80807C8.96955 3.03288 7.95513 2.64528 6.76923 2.64528C5.58333 2.64528 4.56891 3.03288 3.72596 3.80807C2.88301 4.58327 2.46154 5.51615 2.46154 6.60673C2.46154 7.69731 2.88301 8.6302 3.72596 9.40539C4.56891 10.1806 5.58333 10.5682 6.76923 10.5682C7.95513 10.5682 8.96955 10.1806 9.8125 9.40539C10.6554 8.6302 11.0769 7.69731 11.0769 6.60673ZM16 13.9637C16 14.2703 15.8782 14.5355 15.6346 14.7595C15.391 14.9836 15.1026 15.0956 14.7692 15.0956C14.4231 15.0956 14.1346 14.9836 13.9038 14.7595L10.6058 11.7354C9.45833 12.4664 8.17949 12.8319 6.76923 12.8319C5.85256 12.8319 4.97596 12.6683 4.13942 12.3411C3.30288 12.0139 2.58173 11.5718 1.97596 11.0147C1.37019 10.4577 0.889423 9.79446 0.533654 9.02516C0.177885 8.25586 0 7.44972 0 6.60673C0 5.76374 0.177885 4.9576 0.533654 4.1883C0.889423 3.419 1.37019 2.75581 1.97596 2.19873C2.58173 1.64165 3.30288 1.19953 4.13942 0.872352C4.97596 0.545179 5.85256 0.381592 6.76923 0.381592C7.6859 0.381592 8.5625 0.545179 9.39904 0.872352C10.2356 1.19953 10.9567 1.64165 11.5625 2.19873C12.1683 2.75581 12.649 3.419 13.0048 4.1883C13.3606 4.9576 13.5385 5.76374 13.5385 6.60673C13.5385 7.90363 13.141 9.07969 12.3462 10.1349L15.6442 13.1679C15.8814 13.386 16 13.6513 16 13.9637Z" fill="white"/>
</svg>
